<?xml version="1.0" encoding="utf-8" standalone="no"?>
<!DOCTYPE svg PUBLIC "-//W3C//DTD SVG 1.1//EN"
  "http://www.w3.org/Graphics/SVG/1.1/DTD/svg11.dtd">
<svg xmlns:xlink="http://www.w3.org/1999/xlink" width="460.8pt" height="345.6pt" viewBox="0 0 460.8 345.6" xmlns="http://www.w3.org/2000/svg" version="1.1">
 <metadata>
  <rdf:RDF xmlns:dc="http://purl.org/dc/elements/1.1/" xmlns:cc="http://creativecommons.org/ns#" xmlns:rdf="http://www.w3.org/1999/02/22-rdf-syntax-ns#">
   <cc:Work>
    <dc:type rdf:resource="http://purl.org/dc/dcmitype/StillImage"/>
    <dc:date>2023-02-02T17:46:37.344755</dc:date>
    <dc:format>image/svg+xml</dc:format>
    <dc:creator>
     <cc:Agent>
      <dc:title>Matplotlib v3.5.2, https://matplotlib.org/</dc:title>
     </cc:Agent>
    </dc:creator>
   </cc:Work>
  </rdf:RDF>
 </metadata>
 <defs>
  <style type="text/css">*{stroke-linejoin: round; stroke-linecap: butt}</style>
 </defs>
 <g id="figure_1">
  <g id="patch_1">
   <path d="M 0 345.6 
L 460.8 345.6 
L 460.8 0 
L 0 0 
z
" style="fill: #ffffff"/>
  </g>
  <g id="axes_1">
   <g id="patch_2">
    <path d="M 80.12 289.24 
L 448.643388 289.24 
L 448.643388 11.342118 
L 80.12 11.342118 
z
" style="fill: #ffffff"/>
   </g>
   <g id="patch_3">
    <path d="M 96.871063 289.24 
L 100.221276 289.24 
L 100.221276 24.57535 
L 96.871063 24.57535 
z
" clip-path="url(#p4c11e9b5e9)" style="fill: #1f77b4"/>
   </g>
   <g id="patch_4">
    <path d="M 100.221276 289.24 
L 103.571488 289.24 
L 103.571488 152.237122 
L 100.221276 152.237122 
z
" clip-path="url(#p4c11e9b5e9)" style="fill: #1f77b4"/>
   </g>
   <g id="patch_5">
    <path d="M 103.571488 289.24 
L 106.921701 289.24 
L 106.921701 199.137255 
L 103.571488 199.137255 
z
" clip-path="url(#p4c11e9b5e9)" style="fill: #1f77b4"/>
   </g>
   <g id="patch_6">
    <path d="M 106.921701 289.24 
L 110.271914 289.24 
L 110.271914 224.630688 
L 106.921701 224.630688 
z
" clip-path="url(#p4c11e9b5e9)" style="fill: #1f77b4"/>
   </g>
   <g id="patch_7">
    <path d="M 110.271914 289.24 
L 113.622126 289.24 
L 113.622126 235.139432 
L 110.271914 235.139432 
z
" clip-path="url(#p4c11e9b5e9)" style="fill: #1f77b4"/>
   </g>
   <g id="patch_8">
    <path d="M 113.622126 289.24 
L 116.972339 289.24 
L 116.972339 246.815813 
L 113.622126 246.815813 
z
" clip-path="url(#p4c11e9b5e9)" style="fill: #1f77b4"/>
   </g>
   <g id="patch_9">
    <path d="M 116.972339 289.24 
L 120.322551 289.24 
L 120.322551 251.680972 
L 116.972339 251.680972 
z
" clip-path="url(#p4c11e9b5e9)" style="fill: #1f77b4"/>
   </g>
   <g id="patch_10">
    <path d="M 120.322551 289.24 
L 123.672764 289.24 
L 123.672764 256.546131 
L 120.322551 256.546131 
z
" clip-path="url(#p4c11e9b5e9)" style="fill: #1f77b4"/>
   </g>
   <g id="patch_11">
    <path d="M 123.672764 289.24 
L 127.022977 289.24 
L 127.022977 259.659833 
L 123.672764 259.659833 
z
" clip-path="url(#p4c11e9b5e9)" style="fill: #1f77b4"/>
   </g>
   <g id="patch_12">
    <path d="M 127.022977 289.24 
L 130.373189 289.24 
L 130.373189 268.027907 
L 127.022977 268.027907 
z
" clip-path="url(#p4c11e9b5e9)" style="fill: #1f77b4"/>
   </g>
   <g id="patch_13">
    <path d="M 130.373189 289.24 
L 133.723402 289.24 
L 133.723402 262.189716 
L 130.373189 262.189716 
z
" clip-path="url(#p4c11e9b5e9)" style="fill: #1f77b4"/>
   </g>
   <g id="patch_14">
    <path d="M 133.723402 289.24 
L 137.073615 289.24 
L 137.073615 267.638694 
L 133.723402 267.638694 
z
" clip-path="url(#p4c11e9b5e9)" style="fill: #1f77b4"/>
   </g>
   <g id="patch_15">
    <path d="M 137.073615 289.24 
L 140.423827 289.24 
L 140.423827 269.584758 
L 137.073615 269.584758 
z
" clip-path="url(#p4c11e9b5e9)" style="fill: #1f77b4"/>
   </g>
   <g id="patch_16">
    <path d="M 140.423827 289.24 
L 143.77404 289.24 
L 143.77404 269.390151 
L 140.423827 269.390151 
z
" clip-path="url(#p4c11e9b5e9)" style="fill: #1f77b4"/>
   </g>
   <g id="patch_17">
    <path d="M 143.77404 289.24 
L 147.124252 289.24 
L 147.124252 271.141609 
L 143.77404 271.141609 
z
" clip-path="url(#p4c11e9b5e9)" style="fill: #1f77b4"/>
   </g>
   <g id="patch_18">
    <path d="M 147.124252 289.24 
L 150.474465 289.24 
L 150.474465 277.369012 
L 147.124252 277.369012 
z
" clip-path="url(#p4c11e9b5e9)" style="fill: #1f77b4"/>
   </g>
   <g id="patch_19">
    <path d="M 150.474465 289.24 
L 153.824678 289.24 
L 153.824678 274.25531 
L 150.474465 274.25531 
z
" clip-path="url(#p4c11e9b5e9)" style="fill: #1f77b4"/>
   </g>
   <g id="patch_20">
    <path d="M 153.824678 289.24 
L 157.17489 289.24 
L 157.17489 273.476885 
L 153.824678 273.476885 
z
" clip-path="url(#p4c11e9b5e9)" style="fill: #1f77b4"/>
   </g>
   <g id="patch_21">
    <path d="M 157.17489 289.24 
L 160.525103 289.24 
L 160.525103 277.174406 
L 157.17489 277.174406 
z
" clip-path="url(#p4c11e9b5e9)" style="fill: #1f77b4"/>
   </g>
   <g id="patch_22">
    <path d="M 160.525103 289.24 
L 163.875316 289.24 
L 163.875316 276.590587 
L 160.525103 276.590587 
z
" clip-path="url(#p4c11e9b5e9)" style="fill: #1f77b4"/>
   </g>
   <g id="patch_23">
    <path d="M 163.875316 289.24 
L 167.225528 289.24 
L 167.225528 275.617555 
L 163.875316 275.617555 
z
" clip-path="url(#p4c11e9b5e9)" style="fill: #1f77b4"/>
   </g>
   <g id="patch_24">
    <path d="M 167.225528 289.24 
L 170.575741 289.24 
L 170.575741 278.53665 
L 167.225528 278.53665 
z
" clip-path="url(#p4c11e9b5e9)" style="fill: #1f77b4"/>
   </g>
   <g id="patch_25">
    <path d="M 170.575741 289.24 
L 173.925953 289.24 
L 173.925953 277.563618 
L 170.575741 277.563618 
z
" clip-path="url(#p4c11e9b5e9)" style="fill: #1f77b4"/>
   </g>
   <g id="patch_26">
    <path d="M 173.925953 289.24 
L 177.276166 289.24 
L 177.276166 279.120469 
L 173.925953 279.120469 
z
" clip-path="url(#p4c11e9b5e9)" style="fill: #1f77b4"/>
   </g>
   <g id="patch_27">
    <path d="M 177.276166 289.24 
L 180.626379 289.24 
L 180.626379 277.174406 
L 177.276166 277.174406 
z
" clip-path="url(#p4c11e9b5e9)" style="fill: #1f77b4"/>
   </g>
   <g id="patch_28">
    <path d="M 180.626379 289.24 
L 183.976591 289.24 
L 183.976591 279.120469 
L 180.626379 279.120469 
z
" clip-path="url(#p4c11e9b5e9)" style="fill: #1f77b4"/>
   </g>
   <g id="patch_29">
    <path d="M 183.976591 289.24 
L 187.326804 289.24 
L 187.326804 280.288107 
L 183.976591 280.288107 
z
" clip-path="url(#p4c11e9b5e9)" style="fill: #1f77b4"/>
   </g>
   <g id="patch_30">
    <path d="M 187.326804 289.24 
L 190.677017 289.24 
L 190.677017 280.093501 
L 187.326804 280.093501 
z
" clip-path="url(#p4c11e9b5e9)" style="fill: #1f77b4"/>
   </g>
   <g id="patch_31">
    <path d="M 190.677017 289.24 
L 194.027229 289.24 
L 194.027229 282.428777 
L 190.677017 282.428777 
z
" clip-path="url(#p4c11e9b5e9)" style="fill: #1f77b4"/>
   </g>
   <g id="patch_32">
    <path d="M 194.027229 289.24 
L 197.377442 289.24 
L 197.377442 281.455746 
L 194.027229 281.455746 
z
" clip-path="url(#p4c11e9b5e9)" style="fill: #1f77b4"/>
   </g>
   <g id="patch_33">
    <path d="M 197.377442 289.24 
L 200.727654 289.24 
L 200.727654 277.369012 
L 197.377442 277.369012 
z
" clip-path="url(#p4c11e9b5e9)" style="fill: #1f77b4"/>
   </g>
   <g id="patch_34">
    <path d="M 200.727654 289.24 
L 204.077867 289.24 
L 204.077867 280.482714 
L 200.727654 280.482714 
z
" clip-path="url(#p4c11e9b5e9)" style="fill: #1f77b4"/>
   </g>
   <g id="patch_35">
    <path d="M 204.077867 289.24 
L 207.42808 289.24 
L 207.42808 282.428777 
L 204.077867 282.428777 
z
" clip-path="url(#p4c11e9b5e9)" style="fill: #1f77b4"/>
   </g>
   <g id="patch_36">
    <path d="M 207.42808 289.24 
L 210.778292 289.24 
L 210.778292 280.093501 
L 207.42808 280.093501 
z
" clip-path="url(#p4c11e9b5e9)" style="fill: #1f77b4"/>
   </g>
   <g id="patch_37">
    <path d="M 210.778292 289.24 
L 214.128505 289.24 
L 214.128505 281.455746 
L 210.778292 281.455746 
z
" clip-path="url(#p4c11e9b5e9)" style="fill: #1f77b4"/>
   </g>
   <g id="patch_38">
    <path d="M 214.128505 289.24 
L 217.478718 289.24 
L 217.478718 281.650352 
L 214.128505 281.650352 
z
" clip-path="url(#p4c11e9b5e9)" style="fill: #1f77b4"/>
   </g>
   <g id="patch_39">
    <path d="M 217.478718 289.24 
L 220.82893 289.24 
L 220.82893 281.650352 
L 217.478718 281.650352 
z
" clip-path="url(#p4c11e9b5e9)" style="fill: #1f77b4"/>
   </g>
   <g id="patch_40">
    <path d="M 220.82893 289.24 
L 224.179143 289.24 
L 224.179143 282.428777 
L 220.82893 282.428777 
z
" clip-path="url(#p4c11e9b5e9)" style="fill: #1f77b4"/>
   </g>
   <g id="patch_41">
    <path d="M 224.179143 289.24 
L 227.529355 289.24 
L 227.529355 281.066533 
L 224.179143 281.066533 
z
" clip-path="url(#p4c11e9b5e9)" style="fill: #1f77b4"/>
   </g>
   <g id="patch_42">
    <path d="M 227.529355 289.24 
L 230.879568 289.24 
L 230.879568 283.207203 
L 227.529355 283.207203 
z
" clip-path="url(#p4c11e9b5e9)" style="fill: #1f77b4"/>
   </g>
   <g id="patch_43">
    <path d="M 230.879568 289.24 
L 234.229781 289.24 
L 234.229781 284.764054 
L 230.879568 284.764054 
z
" clip-path="url(#p4c11e9b5e9)" style="fill: #1f77b4"/>
   </g>
   <g id="patch_44">
    <path d="M 234.229781 289.24 
L 237.579993 289.24 
L 237.579993 283.596416 
L 234.229781 283.596416 
z
" clip-path="url(#p4c11e9b5e9)" style="fill: #1f77b4"/>
   </g>
   <g id="patch_45">
    <path d="M 237.579993 289.24 
L 240.930206 289.24 
L 240.930206 284.374841 
L 237.579993 284.374841 
z
" clip-path="url(#p4c11e9b5e9)" style="fill: #1f77b4"/>
   </g>
   <g id="patch_46">
    <path d="M 240.930206 289.24 
L 244.280418 289.24 
L 244.280418 283.791022 
L 240.930206 283.791022 
z
" clip-path="url(#p4c11e9b5e9)" style="fill: #1f77b4"/>
   </g>
   <g id="patch_47">
    <path d="M 244.280418 289.24 
L 247.630631 289.24 
L 247.630631 282.428777 
L 244.280418 282.428777 
z
" clip-path="url(#p4c11e9b5e9)" style="fill: #1f77b4"/>
   </g>
   <g id="patch_48">
    <path d="M 247.630631 289.24 
L 250.980844 289.24 
L 250.980844 285.347873 
L 247.630631 285.347873 
z
" clip-path="url(#p4c11e9b5e9)" style="fill: #1f77b4"/>
   </g>
   <g id="patch_49">
    <path d="M 250.980844 289.24 
L 254.331056 289.24 
L 254.331056 284.764054 
L 250.980844 284.764054 
z
" clip-path="url(#p4c11e9b5e9)" style="fill: #1f77b4"/>
   </g>
   <g id="patch_50">
    <path d="M 254.331056 289.24 
L 257.681269 289.24 
L 257.681269 283.207203 
L 254.331056 283.207203 
z
" clip-path="url(#p4c11e9b5e9)" style="fill: #1f77b4"/>
   </g>
   <g id="patch_51">
    <path d="M 257.681269 289.24 
L 261.031482 289.24 
L 261.031482 282.81799 
L 257.681269 282.81799 
z
" clip-path="url(#p4c11e9b5e9)" style="fill: #1f77b4"/>
   </g>
   <g id="patch_52">
    <path d="M 261.031482 289.24 
L 264.381694 289.24 
L 264.381694 283.012596 
L 261.031482 283.012596 
z
" clip-path="url(#p4c11e9b5e9)" style="fill: #1f77b4"/>
   </g>
   <g id="patch_53">
    <path d="M 264.381694 289.24 
L 267.731907 289.24 
L 267.731907 286.126298 
L 264.381694 286.126298 
z
" clip-path="url(#p4c11e9b5e9)" style="fill: #1f77b4"/>
   </g>
   <g id="patch_54">
    <path d="M 267.731907 289.24 
L 271.082119 289.24 
L 271.082119 284.569447 
L 267.731907 284.569447 
z
" clip-path="url(#p4c11e9b5e9)" style="fill: #1f77b4"/>
   </g>
   <g id="patch_55">
    <path d="M 271.082119 289.24 
L 274.432332 289.24 
L 274.432332 284.764054 
L 271.082119 284.764054 
z
" clip-path="url(#p4c11e9b5e9)" style="fill: #1f77b4"/>
   </g>
   <g id="patch_56">
    <path d="M 274.432332 289.24 
L 277.782545 289.24 
L 277.782545 282.623384 
L 274.432332 282.623384 
z
" clip-path="url(#p4c11e9b5e9)" style="fill: #1f77b4"/>
   </g>
   <g id="patch_57">
    <path d="M 277.782545 289.24 
L 281.132757 289.24 
L 281.132757 285.153266 
L 277.782545 285.153266 
z
" clip-path="url(#p4c11e9b5e9)" style="fill: #1f77b4"/>
   </g>
   <g id="patch_58">
    <path d="M 281.132757 289.24 
L 284.48297 289.24 
L 284.48297 283.596416 
L 281.132757 283.596416 
z
" clip-path="url(#p4c11e9b5e9)" style="fill: #1f77b4"/>
   </g>
   <g id="patch_59">
    <path d="M 284.48297 289.24 
L 287.833183 289.24 
L 287.833183 286.320905 
L 284.48297 286.320905 
z
" clip-path="url(#p4c11e9b5e9)" style="fill: #1f77b4"/>
   </g>
   <g id="patch_60">
    <path d="M 287.833183 289.24 
L 291.183395 289.24 
L 291.183395 285.737086 
L 287.833183 285.737086 
z
" clip-path="url(#p4c11e9b5e9)" style="fill: #1f77b4"/>
   </g>
   <g id="patch_61">
    <path d="M 291.183395 289.24 
L 294.533608 289.24 
L 294.533608 284.95866 
L 291.183395 284.95866 
z
" clip-path="url(#p4c11e9b5e9)" style="fill: #1f77b4"/>
   </g>
   <g id="patch_62">
    <path d="M 294.533608 289.24 
L 297.88382 289.24 
L 297.88382 284.764054 
L 294.533608 284.764054 
z
" clip-path="url(#p4c11e9b5e9)" style="fill: #1f77b4"/>
   </g>
   <g id="patch_63">
    <path d="M 297.88382 289.24 
L 301.234033 289.24 
L 301.234033 285.347873 
L 297.88382 285.347873 
z
" clip-path="url(#p4c11e9b5e9)" style="fill: #1f77b4"/>
   </g>
   <g id="patch_64">
    <path d="M 301.234033 289.24 
L 304.584246 289.24 
L 304.584246 284.95866 
L 301.234033 284.95866 
z
" clip-path="url(#p4c11e9b5e9)" style="fill: #1f77b4"/>
   </g>
   <g id="patch_65">
    <path d="M 304.584246 289.24 
L 307.934458 289.24 
L 307.934458 285.347873 
L 304.584246 285.347873 
z
" clip-path="url(#p4c11e9b5e9)" style="fill: #1f77b4"/>
   </g>
   <g id="patch_66">
    <path d="M 307.934458 289.24 
L 311.284671 289.24 
L 311.284671 286.126298 
L 307.934458 286.126298 
z
" clip-path="url(#p4c11e9b5e9)" style="fill: #1f77b4"/>
   </g>
   <g id="patch_67">
    <path d="M 311.284671 289.24 
L 314.634884 289.24 
L 314.634884 285.347873 
L 311.284671 285.347873 
z
" clip-path="url(#p4c11e9b5e9)" style="fill: #1f77b4"/>
   </g>
   <g id="patch_68">
    <path d="M 314.634884 289.24 
L 317.985096 289.24 
L 317.985096 284.180235 
L 314.634884 284.180235 
z
" clip-path="url(#p4c11e9b5e9)" style="fill: #1f77b4"/>
   </g>
   <g id="patch_69">
    <path d="M 317.985096 289.24 
L 321.335309 289.24 
L 321.335309 285.931692 
L 317.985096 285.931692 
z
" clip-path="url(#p4c11e9b5e9)" style="fill: #1f77b4"/>
   </g>
   <g id="patch_70">
    <path d="M 321.335309 289.24 
L 324.685521 289.24 
L 324.685521 285.153266 
L 321.335309 285.153266 
z
" clip-path="url(#p4c11e9b5e9)" style="fill: #1f77b4"/>
   </g>
   <g id="patch_71">
    <path d="M 324.685521 289.24 
L 328.035734 289.24 
L 328.035734 285.347873 
L 324.685521 285.347873 
z
" clip-path="url(#p4c11e9b5e9)" style="fill: #1f77b4"/>
   </g>
   <g id="patch_72">
    <path d="M 328.035734 289.24 
L 331.385947 289.24 
L 331.385947 285.542479 
L 328.035734 285.542479 
z
" clip-path="url(#p4c11e9b5e9)" style="fill: #1f77b4"/>
   </g>
   <g id="patch_73">
    <path d="M 331.385947 289.24 
L 334.736159 289.24 
L 334.736159 286.710117 
L 331.385947 286.710117 
z
" clip-path="url(#p4c11e9b5e9)" style="fill: #1f77b4"/>
   </g>
   <g id="patch_74">
    <path d="M 334.736159 289.24 
L 338.086372 289.24 
L 338.086372 286.126298 
L 334.736159 286.126298 
z
" clip-path="url(#p4c11e9b5e9)" style="fill: #1f77b4"/>
   </g>
   <g id="patch_75">
    <path d="M 338.086372 289.24 
L 341.436585 289.24 
L 341.436585 285.542479 
L 338.086372 285.542479 
z
" clip-path="url(#p4c11e9b5e9)" style="fill: #1f77b4"/>
   </g>
   <g id="patch_76">
    <path d="M 341.436585 289.24 
L 344.786797 289.24 
L 344.786797 285.737086 
L 341.436585 285.737086 
z
" clip-path="url(#p4c11e9b5e9)" style="fill: #1f77b4"/>
   </g>
   <g id="patch_77">
    <path d="M 344.786797 289.24 
L 348.13701 289.24 
L 348.13701 284.95866 
L 344.786797 284.95866 
z
" clip-path="url(#p4c11e9b5e9)" style="fill: #1f77b4"/>
   </g>
   <g id="patch_78">
    <path d="M 348.13701 289.24 
L 351.487222 289.24 
L 351.487222 286.320905 
L 348.13701 286.320905 
z
" clip-path="url(#p4c11e9b5e9)" style="fill: #1f77b4"/>
   </g>
   <g id="patch_79">
    <path d="M 351.487222 289.24 
L 354.837435 289.24 
L 354.837435 287.293936 
L 351.487222 287.293936 
z
" clip-path="url(#p4c11e9b5e9)" style="fill: #1f77b4"/>
   </g>
   <g id="patch_80">
    <path d="M 354.837435 289.24 
L 358.187648 289.24 
L 358.187648 286.126298 
L 354.837435 286.126298 
z
" clip-path="url(#p4c11e9b5e9)" style="fill: #1f77b4"/>
   </g>
   <g id="patch_81">
    <path d="M 358.187648 289.24 
L 361.53786 289.24 
L 361.53786 285.542479 
L 358.187648 285.542479 
z
" clip-path="url(#p4c11e9b5e9)" style="fill: #1f77b4"/>
   </g>
   <g id="patch_82">
    <path d="M 361.53786 289.24 
L 364.888073 289.24 
L 364.888073 284.95866 
L 361.53786 284.95866 
z
" clip-path="url(#p4c11e9b5e9)" style="fill: #1f77b4"/>
   </g>
   <g id="patch_83">
    <path d="M 364.888073 289.24 
L 368.238285 289.24 
L 368.238285 284.95866 
L 364.888073 284.95866 
z
" clip-path="url(#p4c11e9b5e9)" style="fill: #1f77b4"/>
   </g>
   <g id="patch_84">
    <path d="M 368.238285 289.24 
L 371.588498 289.24 
L 371.588498 286.320905 
L 368.238285 286.320905 
z
" clip-path="url(#p4c11e9b5e9)" style="fill: #1f77b4"/>
   </g>
   <g id="patch_85">
    <path d="M 371.588498 289.24 
L 374.938711 289.24 
L 374.938711 284.180235 
L 371.588498 284.180235 
z
" clip-path="url(#p4c11e9b5e9)" style="fill: #1f77b4"/>
   </g>
   <g id="patch_86">
    <path d="M 374.938711 289.24 
L 378.288923 289.24 
L 378.288923 285.542479 
L 374.938711 285.542479 
z
" clip-path="url(#p4c11e9b5e9)" style="fill: #1f77b4"/>
   </g>
   <g id="patch_87">
    <path d="M 378.288923 289.24 
L 381.639136 289.24 
L 381.639136 284.569447 
L 378.288923 284.569447 
z
" clip-path="url(#p4c11e9b5e9)" style="fill: #1f77b4"/>
   </g>
   <g id="patch_88">
    <path d="M 381.639136 289.24 
L 384.989349 289.24 
L 384.989349 286.515511 
L 381.639136 286.515511 
z
" clip-path="url(#p4c11e9b5e9)" style="fill: #1f77b4"/>
   </g>
   <g id="patch_89">
    <path d="M 384.989349 289.24 
L 388.339561 289.24 
L 388.339561 287.09933 
L 384.989349 287.09933 
z
" clip-path="url(#p4c11e9b5e9)" style="fill: #1f77b4"/>
   </g>
   <g id="patch_90">
    <path d="M 388.339561 289.24 
L 391.689774 289.24 
L 391.689774 286.320905 
L 388.339561 286.320905 
z
" clip-path="url(#p4c11e9b5e9)" style="fill: #1f77b4"/>
   </g>
   <g id="patch_91">
    <path d="M 391.689774 289.24 
L 395.039986 289.24 
L 395.039986 286.515511 
L 391.689774 286.515511 
z
" clip-path="url(#p4c11e9b5e9)" style="fill: #1f77b4"/>
   </g>
   <g id="patch_92">
    <path d="M 395.039986 289.24 
L 398.390199 289.24 
L 398.390199 286.320905 
L 395.039986 286.320905 
z
" clip-path="url(#p4c11e9b5e9)" style="fill: #1f77b4"/>
   </g>
   <g id="patch_93">
    <path d="M 398.390199 289.24 
L 401.740412 289.24 
L 401.740412 287.488543 
L 398.390199 287.488543 
z
" clip-path="url(#p4c11e9b5e9)" style="fill: #1f77b4"/>
   </g>
   <g id="patch_94">
    <path d="M 401.740412 289.24 
L 405.090624 289.24 
L 405.090624 285.347873 
L 401.740412 285.347873 
z
" clip-path="url(#p4c11e9b5e9)" style="fill: #1f77b4"/>
   </g>
   <g id="patch_95">
    <path d="M 405.090624 289.24 
L 408.440837 289.24 
L 408.440837 287.09933 
L 405.090624 287.09933 
z
" clip-path="url(#p4c11e9b5e9)" style="fill: #1f77b4"/>
   </g>
   <g id="patch_96">
    <path d="M 408.440837 289.24 
L 411.79105 289.24 
L 411.79105 286.904724 
L 408.440837 286.904724 
z
" clip-path="url(#p4c11e9b5e9)" style="fill: #1f77b4"/>
   </g>
   <g id="patch_97">
    <path d="M 411.79105 289.24 
L 415.141262 289.24 
L 415.141262 287.488543 
L 411.79105 287.488543 
z
" clip-path="url(#p4c11e9b5e9)" style="fill: #1f77b4"/>
   </g>
   <g id="patch_98">
    <path d="M 415.141262 289.24 
L 418.491475 289.24 
L 418.491475 286.320905 
L 415.141262 286.320905 
z
" clip-path="url(#p4c11e9b5e9)" style="fill: #1f77b4"/>
   </g>
   <g id="patch_99">
    <path d="M 418.491475 289.24 
L 421.841687 289.24 
L 421.841687 286.710117 
L 418.491475 286.710117 
z
" clip-path="url(#p4c11e9b5e9)" style="fill: #1f77b4"/>
   </g>
   <g id="patch_100">
    <path d="M 421.841687 289.24 
L 425.1919 289.24 
L 425.1919 286.126298 
L 421.841687 286.126298 
z
" clip-path="url(#p4c11e9b5e9)" style="fill: #1f77b4"/>
   </g>
   <g id="patch_101">
    <path d="M 425.1919 289.24 
L 428.542113 289.24 
L 428.542113 287.09933 
L 425.1919 287.09933 
z
" clip-path="url(#p4c11e9b5e9)" style="fill: #1f77b4"/>
   </g>
   <g id="patch_102">
    <path d="M 428.542113 289.24 
L 431.892325 289.24 
L 431.892325 286.904724 
L 428.542113 286.904724 
z
" clip-path="url(#p4c11e9b5e9)" style="fill: #1f77b4"/>
   </g>
   <g id="matplotlib.axis_1">
    <g id="xtick_1">
     <g id="line2d_1">
      <defs>
       <path id="m95bdd5fb4b" d="M 0 0 
L 0 3.5 
" style="stroke: #000000; stroke-width: 0.8"/>
      </defs>
      <g>
       <use xlink:href="#m95bdd5fb4b" x="96.871063" y="289.24" style="stroke: #000000; stroke-width: 0.8"/>
      </g>
     </g>
     <g id="text_1">
      <!-- 0 -->
      <g style="fill: #808080" transform="translate(92.099188 307.637656)scale(0.15 -0.15)">
       <defs>
        <path id="DejaVuSans-30" d="M 2034 4250 
Q 1547 4250 1301 3770 
Q 1056 3291 1056 2328 
Q 1056 1369 1301 889 
Q 1547 409 2034 409 
Q 2525 409 2770 889 
Q 3016 1369 3016 2328 
Q 3016 3291 2770 3770 
Q 2525 4250 2034 4250 
z
M 2034 4750 
Q 2819 4750 3233 4129 
Q 3647 3509 3647 2328 
Q 3647 1150 3233 529 
Q 2819 -91 2034 -91 
Q 1250 -91 836 529 
Q 422 1150 422 2328 
Q 422 3509 836 4129 
Q 1250 4750 2034 4750 
z
" transform="scale(0.015625)"/>
       </defs>
       <use xlink:href="#DejaVuSans-30"/>
      </g>
     </g>
    </g>
    <g id="xtick_2">
     <g id="line2d_2">
      <g>
       <use xlink:href="#m95bdd5fb4b" x="164.552126" y="289.24" style="stroke: #000000; stroke-width: 0.8"/>
      </g>
     </g>
     <g id="text_2">
      <!-- 20 -->
      <g style="fill: #808080" transform="translate(155.008376 307.637656)scale(0.15 -0.15)">
       <defs>
        <path id="DejaVuSans-32" d="M 1228 531 
L 3431 531 
L 3431 0 
L 469 0 
L 469 531 
Q 828 903 1448 1529 
Q 2069 2156 2228 2338 
Q 2531 2678 2651 2914 
Q 2772 3150 2772 3378 
Q 2772 3750 2511 3984 
Q 2250 4219 1831 4219 
Q 1534 4219 1204 4116 
Q 875 4013 500 3803 
L 500 4441 
Q 881 4594 1212 4672 
Q 1544 4750 1819 4750 
Q 2544 4750 2975 4387 
Q 3406 4025 3406 3419 
Q 3406 3131 3298 2873 
Q 3191 2616 2906 2266 
Q 2828 2175 2409 1742 
Q 1991 1309 1228 531 
z
" transform="scale(0.015625)"/>
       </defs>
       <use xlink:href="#DejaVuSans-32"/>
       <use xlink:href="#DejaVuSans-30" x="63.623047"/>
      </g>
     </g>
    </g>
    <g id="xtick_3">
     <g id="line2d_3">
      <g>
       <use xlink:href="#m95bdd5fb4b" x="232.233189" y="289.24" style="stroke: #000000; stroke-width: 0.8"/>
      </g>
     </g>
     <g id="text_3">
      <!-- 40 -->
      <g style="fill: #808080" transform="translate(222.689439 307.637656)scale(0.15 -0.15)">
       <defs>
        <path id="DejaVuSans-34" d="M 2419 4116 
L 825 1625 
L 2419 1625 
L 2419 4116 
z
M 2253 4666 
L 3047 4666 
L 3047 1625 
L 3713 1625 
L 3713 1100 
L 3047 1100 
L 3047 0 
L 2419 0 
L 2419 1100 
L 313 1100 
L 313 1709 
L 2253 4666 
z
" transform="scale(0.015625)"/>
       </defs>
       <use xlink:href="#DejaVuSans-34"/>
       <use xlink:href="#DejaVuSans-30" x="63.623047"/>
      </g>
     </g>
    </g>
    <g id="xtick_4">
     <g id="line2d_4">
      <g>
       <use xlink:href="#m95bdd5fb4b" x="299.914252" y="289.24" style="stroke: #000000; stroke-width: 0.8"/>
      </g>
     </g>
     <g id="text_4">
      <!-- 60 -->
      <g style="fill: #808080" transform="translate(290.370502 307.637656)scale(0.15 -0.15)">
       <defs>
        <path id="DejaVuSans-36" d="M 2113 2584 
Q 1688 2584 1439 2293 
Q 1191 2003 1191 1497 
Q 1191 994 1439 701 
Q 1688 409 2113 409 
Q 2538 409 2786 701 
Q 3034 994 3034 1497 
Q 3034 2003 2786 2293 
Q 2538 2584 2113 2584 
z
M 3366 4563 
L 3366 3988 
Q 3128 4100 2886 4159 
Q 2644 4219 2406 4219 
Q 1781 4219 1451 3797 
Q 1122 3375 1075 2522 
Q 1259 2794 1537 2939 
Q 1816 3084 2150 3084 
Q 2853 3084 3261 2657 
Q 3669 2231 3669 1497 
Q 3669 778 3244 343 
Q 2819 -91 2113 -91 
Q 1303 -91 875 529 
Q 447 1150 447 2328 
Q 447 3434 972 4092 
Q 1497 4750 2381 4750 
Q 2619 4750 2861 4703 
Q 3103 4656 3366 4563 
z
" transform="scale(0.015625)"/>
       </defs>
       <use xlink:href="#DejaVuSans-36"/>
       <use xlink:href="#DejaVuSans-30" x="63.623047"/>
      </g>
     </g>
    </g>
    <g id="xtick_5">
     <g id="line2d_5">
      <g>
       <use xlink:href="#m95bdd5fb4b" x="367.595315" y="289.24" style="stroke: #000000; stroke-width: 0.8"/>
      </g>
     </g>
     <g id="text_5">
      <!-- 80 -->
      <g style="fill: #808080" transform="translate(358.051565 307.637656)scale(0.15 -0.15)">
       <defs>
        <path id="DejaVuSans-38" d="M 2034 2216 
Q 1584 2216 1326 1975 
Q 1069 1734 1069 1313 
Q 1069 891 1326 650 
Q 1584 409 2034 409 
Q 2484 409 2743 651 
Q 3003 894 3003 1313 
Q 3003 1734 2745 1975 
Q 2488 2216 2034 2216 
z
M 1403 2484 
Q 997 2584 770 2862 
Q 544 3141 544 3541 
Q 544 4100 942 4425 
Q 1341 4750 2034 4750 
Q 2731 4750 3128 4425 
Q 3525 4100 3525 3541 
Q 3525 3141 3298 2862 
Q 3072 2584 2669 2484 
Q 3125 2378 3379 2068 
Q 3634 1759 3634 1313 
Q 3634 634 3220 271 
Q 2806 -91 2034 -91 
Q 1263 -91 848 271 
Q 434 634 434 1313 
Q 434 1759 690 2068 
Q 947 2378 1403 2484 
z
M 1172 3481 
Q 1172 3119 1398 2916 
Q 1625 2713 2034 2713 
Q 2441 2713 2670 2916 
Q 2900 3119 2900 3481 
Q 2900 3844 2670 4047 
Q 2441 4250 2034 4250 
Q 1625 4250 1398 4047 
Q 1172 3844 1172 3481 
z
" transform="scale(0.015625)"/>
       </defs>
       <use xlink:href="#DejaVuSans-38"/>
       <use xlink:href="#DejaVuSans-30" x="63.623047"/>
      </g>
     </g>
    </g>
    <g id="xtick_6">
     <g id="line2d_6">
      <g>
       <use xlink:href="#m95bdd5fb4b" x="435.276378" y="289.24" style="stroke: #000000; stroke-width: 0.8"/>
      </g>
     </g>
     <g id="text_6">
      <!-- 100 -->
      <g style="fill: #808080" transform="translate(420.960753 307.637656)scale(0.15 -0.15)">
       <defs>
        <path id="DejaVuSans-31" d="M 794 531 
L 1825 531 
L 1825 4091 
L 703 3866 
L 703 4441 
L 1819 4666 
L 2450 4666 
L 2450 531 
L 3481 531 
L 3481 0 
L 794 0 
L 794 531 
z
" transform="scale(0.015625)"/>
       </defs>
       <use xlink:href="#DejaVuSans-31"/>
       <use xlink:href="#DejaVuSans-30" x="63.623047"/>
       <use xlink:href="#DejaVuSans-30" x="127.246094"/>
      </g>
     </g>
    </g>
    <g id="text_7">
     <!-- location tag -->
     <g transform="translate(205.128569 329.954062)scale(0.2 -0.2)">
      <defs>
       <path id="DejaVuSans-6c" d="M 603 4863 
L 1178 4863 
L 1178 0 
L 603 0 
L 603 4863 
z
" transform="scale(0.015625)"/>
       <path id="DejaVuSans-6f" d="M 1959 3097 
Q 1497 3097 1228 2736 
Q 959 2375 959 1747 
Q 959 1119 1226 758 
Q 1494 397 1959 397 
Q 2419 397 2687 759 
Q 2956 1122 2956 1747 
Q 2956 2369 2687 2733 
Q 2419 3097 1959 3097 
z
M 1959 3584 
Q 2709 3584 3137 3096 
Q 3566 2609 3566 1747 
Q 3566 888 3137 398 
Q 2709 -91 1959 -91 
Q 1206 -91 779 398 
Q 353 888 353 1747 
Q 353 2609 779 3096 
Q 1206 3584 1959 3584 
z
" transform="scale(0.015625)"/>
       <path id="DejaVuSans-63" d="M 3122 3366 
L 3122 2828 
Q 2878 2963 2633 3030 
Q 2388 3097 2138 3097 
Q 1578 3097 1268 2742 
Q 959 2388 959 1747 
Q 959 1106 1268 751 
Q 1578 397 2138 397 
Q 2388 397 2633 464 
Q 2878 531 3122 666 
L 3122 134 
Q 2881 22 2623 -34 
Q 2366 -91 2075 -91 
Q 1284 -91 818 406 
Q 353 903 353 1747 
Q 353 2603 823 3093 
Q 1294 3584 2113 3584 
Q 2378 3584 2631 3529 
Q 2884 3475 3122 3366 
z
" transform="scale(0.015625)"/>
       <path id="DejaVuSans-61" d="M 2194 1759 
Q 1497 1759 1228 1600 
Q 959 1441 959 1056 
Q 959 750 1161 570 
Q 1363 391 1709 391 
Q 2188 391 2477 730 
Q 2766 1069 2766 1631 
L 2766 1759 
L 2194 1759 
z
M 3341 1997 
L 3341 0 
L 2766 0 
L 2766 531 
Q 2569 213 2275 61 
Q 1981 -91 1556 -91 
Q 1019 -91 701 211 
Q 384 513 384 1019 
Q 384 1609 779 1909 
Q 1175 2209 1959 2209 
L 2766 2209 
L 2766 2266 
Q 2766 2663 2505 2880 
Q 2244 3097 1772 3097 
Q 1472 3097 1187 3025 
Q 903 2953 641 2809 
L 641 3341 
Q 956 3463 1253 3523 
Q 1550 3584 1831 3584 
Q 2591 3584 2966 3190 
Q 3341 2797 3341 1997 
z
" transform="scale(0.015625)"/>
       <path id="DejaVuSans-74" d="M 1172 4494 
L 1172 3500 
L 2356 3500 
L 2356 3053 
L 1172 3053 
L 1172 1153 
Q 1172 725 1289 603 
Q 1406 481 1766 481 
L 2356 481 
L 2356 0 
L 1766 0 
Q 1100 0 847 248 
Q 594 497 594 1153 
L 594 3053 
L 172 3053 
L 172 3500 
L 594 3500 
L 594 4494 
L 1172 4494 
z
" transform="scale(0.015625)"/>
       <path id="DejaVuSans-69" d="M 603 3500 
L 1178 3500 
L 1178 0 
L 603 0 
L 603 3500 
z
M 603 4863 
L 1178 4863 
L 1178 4134 
L 603 4134 
L 603 4863 
z
" transform="scale(0.015625)"/>
       <path id="DejaVuSans-6e" d="M 3513 2113 
L 3513 0 
L 2938 0 
L 2938 2094 
Q 2938 2591 2744 2837 
Q 2550 3084 2163 3084 
Q 1697 3084 1428 2787 
Q 1159 2491 1159 1978 
L 1159 0 
L 581 0 
L 581 3500 
L 1159 3500 
L 1159 2956 
Q 1366 3272 1645 3428 
Q 1925 3584 2291 3584 
Q 2894 3584 3203 3211 
Q 3513 2838 3513 2113 
z
" transform="scale(0.015625)"/>
       <path id="DejaVuSans-20" transform="scale(0.015625)"/>
       <path id="DejaVuSans-67" d="M 2906 1791 
Q 2906 2416 2648 2759 
Q 2391 3103 1925 3103 
Q 1463 3103 1205 2759 
Q 947 2416 947 1791 
Q 947 1169 1205 825 
Q 1463 481 1925 481 
Q 2391 481 2648 825 
Q 2906 1169 2906 1791 
z
M 3481 434 
Q 3481 -459 3084 -895 
Q 2688 -1331 1869 -1331 
Q 1566 -1331 1297 -1286 
Q 1028 -1241 775 -1147 
L 775 -588 
Q 1028 -725 1275 -790 
Q 1522 -856 1778 -856 
Q 2344 -856 2625 -561 
Q 2906 -266 2906 331 
L 2906 616 
Q 2728 306 2450 153 
Q 2172 0 1784 0 
Q 1141 0 747 490 
Q 353 981 353 1791 
Q 353 2603 747 3093 
Q 1141 3584 1784 3584 
Q 2172 3584 2450 3431 
Q 2728 3278 2906 2969 
L 2906 3500 
L 3481 3500 
L 3481 434 
z
" transform="scale(0.015625)"/>
      </defs>
      <use xlink:href="#DejaVuSans-6c"/>
      <use xlink:href="#DejaVuSans-6f" x="27.783203"/>
      <use xlink:href="#DejaVuSans-63" x="88.964844"/>
      <use xlink:href="#DejaVuSans-61" x="143.945312"/>
      <use xlink:href="#DejaVuSans-74" x="205.224609"/>
      <use xlink:href="#DejaVuSans-69" x="244.433594"/>
      <use xlink:href="#DejaVuSans-6f" x="272.216797"/>
      <use xlink:href="#DejaVuSans-6e" x="333.398438"/>
      <use xlink:href="#DejaVuSans-20" x="396.777344"/>
      <use xlink:href="#DejaVuSans-74" x="428.564453"/>
      <use xlink:href="#DejaVuSans-61" x="467.773438"/>
      <use xlink:href="#DejaVuSans-67" x="529.052734"/>
     </g>
    </g>
   </g>
   <g id="matplotlib.axis_2">
    <g id="ytick_1">
     <g id="line2d_7">
      <defs>
       <path id="mdc1bb4a0ad" d="M 0 0 
L -3.5 0 
" style="stroke: #000000; stroke-width: 0.8"/>
      </defs>
      <g>
       <use xlink:href="#mdc1bb4a0ad" x="80.12" y="289.24" style="stroke: #000000; stroke-width: 0.8"/>
      </g>
     </g>
     <g id="text_8">
      <!-- 0 -->
      <g style="fill: #808080" transform="translate(63.57625 294.938828)scale(0.15 -0.15)">
       <use xlink:href="#DejaVuSans-30"/>
      </g>
     </g>
    </g>
    <g id="ytick_2">
     <g id="line2d_8">
      <g>
       <use xlink:href="#mdc1bb4a0ad" x="80.12" y="250.318728" style="stroke: #000000; stroke-width: 0.8"/>
      </g>
     </g>
     <g id="text_9">
      <!-- 200 -->
      <g style="fill: #808080" transform="translate(44.48875 256.017556)scale(0.15 -0.15)">
       <use xlink:href="#DejaVuSans-32"/>
       <use xlink:href="#DejaVuSans-30" x="63.623047"/>
       <use xlink:href="#DejaVuSans-30" x="127.246094"/>
      </g>
     </g>
    </g>
    <g id="ytick_3">
     <g id="line2d_9">
      <g>
       <use xlink:href="#mdc1bb4a0ad" x="80.12" y="211.397456" style="stroke: #000000; stroke-width: 0.8"/>
      </g>
     </g>
     <g id="text_10">
      <!-- 400 -->
      <g style="fill: #808080" transform="translate(44.48875 217.096284)scale(0.15 -0.15)">
       <use xlink:href="#DejaVuSans-34"/>
       <use xlink:href="#DejaVuSans-30" x="63.623047"/>
       <use xlink:href="#DejaVuSans-30" x="127.246094"/>
      </g>
     </g>
    </g>
    <g id="ytick_4">
     <g id="line2d_10">
      <g>
       <use xlink:href="#mdc1bb4a0ad" x="80.12" y="172.476184" style="stroke: #000000; stroke-width: 0.8"/>
      </g>
     </g>
     <g id="text_11">
      <!-- 600 -->
      <g style="fill: #808080" transform="translate(44.48875 178.175012)scale(0.15 -0.15)">
       <use xlink:href="#DejaVuSans-36"/>
       <use xlink:href="#DejaVuSans-30" x="63.623047"/>
       <use xlink:href="#DejaVuSans-30" x="127.246094"/>
      </g>
     </g>
    </g>
    <g id="ytick_5">
     <g id="line2d_11">
      <g>
       <use xlink:href="#mdc1bb4a0ad" x="80.12" y="133.554912" style="stroke: #000000; stroke-width: 0.8"/>
      </g>
     </g>
     <g id="text_12">
      <!-- 800 -->
      <g style="fill: #808080" transform="translate(44.48875 139.25374)scale(0.15 -0.15)">
       <use xlink:href="#DejaVuSans-38"/>
       <use xlink:href="#DejaVuSans-30" x="63.623047"/>
       <use xlink:href="#DejaVuSans-30" x="127.246094"/>
      </g>
     </g>
    </g>
    <g id="ytick_6">
     <g id="line2d_12">
      <g>
       <use xlink:href="#mdc1bb4a0ad" x="80.12" y="94.63364" style="stroke: #000000; stroke-width: 0.8"/>
      </g>
     </g>
     <g id="text_13">
      <!-- 1000 -->
      <g style="fill: #808080" transform="translate(34.945 100.332468)scale(0.15 -0.15)">
       <use xlink:href="#DejaVuSans-31"/>
       <use xlink:href="#DejaVuSans-30" x="63.623047"/>
       <use xlink:href="#DejaVuSans-30" x="127.246094"/>
       <use xlink:href="#DejaVuSans-30" x="190.869141"/>
      </g>
     </g>
    </g>
    <g id="ytick_7">
     <g id="line2d_13">
      <g>
       <use xlink:href="#mdc1bb4a0ad" x="80.12" y="55.712368" style="stroke: #000000; stroke-width: 0.8"/>
      </g>
     </g>
     <g id="text_14">
      <!-- 1200 -->
      <g style="fill: #808080" transform="translate(34.945 61.411196)scale(0.15 -0.15)">
       <use xlink:href="#DejaVuSans-31"/>
       <use xlink:href="#DejaVuSans-32" x="63.623047"/>
       <use xlink:href="#DejaVuSans-30" x="127.246094"/>
       <use xlink:href="#DejaVuSans-30" x="190.869141"/>
      </g>
     </g>
    </g>
    <g id="ytick_8">
     <g id="line2d_14">
      <g>
       <use xlink:href="#mdc1bb4a0ad" x="80.12" y="16.791096" style="stroke: #000000; stroke-width: 0.8"/>
      </g>
     </g>
     <g id="text_15">
      <!-- 1400 -->
      <g style="fill: #808080" transform="translate(34.945 22.489924)scale(0.15 -0.15)">
       <use xlink:href="#DejaVuSans-31"/>
       <use xlink:href="#DejaVuSans-34" x="63.623047"/>
       <use xlink:href="#DejaVuSans-30" x="127.246094"/>
       <use xlink:href="#DejaVuSans-30" x="190.869141"/>
      </g>
     </g>
    </g>
    <g id="text_16">
     <!-- number -->
     <g transform="translate(26.785625 189.319184)rotate(-90)scale(0.2 -0.2)">
      <defs>
       <path id="DejaVuSans-75" d="M 544 1381 
L 544 3500 
L 1119 3500 
L 1119 1403 
Q 1119 906 1312 657 
Q 1506 409 1894 409 
Q 2359 409 2629 706 
Q 2900 1003 2900 1516 
L 2900 3500 
L 3475 3500 
L 3475 0 
L 2900 0 
L 2900 538 
Q 2691 219 2414 64 
Q 2138 -91 1772 -91 
Q 1169 -91 856 284 
Q 544 659 544 1381 
z
M 1991 3584 
L 1991 3584 
z
" transform="scale(0.015625)"/>
       <path id="DejaVuSans-6d" d="M 3328 2828 
Q 3544 3216 3844 3400 
Q 4144 3584 4550 3584 
Q 5097 3584 5394 3201 
Q 5691 2819 5691 2113 
L 5691 0 
L 5113 0 
L 5113 2094 
Q 5113 2597 4934 2840 
Q 4756 3084 4391 3084 
Q 3944 3084 3684 2787 
Q 3425 2491 3425 1978 
L 3425 0 
L 2847 0 
L 2847 2094 
Q 2847 2600 2669 2842 
Q 2491 3084 2119 3084 
Q 1678 3084 1418 2786 
Q 1159 2488 1159 1978 
L 1159 0 
L 581 0 
L 581 3500 
L 1159 3500 
L 1159 2956 
Q 1356 3278 1631 3431 
Q 1906 3584 2284 3584 
Q 2666 3584 2933 3390 
Q 3200 3197 3328 2828 
z
" transform="scale(0.015625)"/>
       <path id="DejaVuSans-62" d="M 3116 1747 
Q 3116 2381 2855 2742 
Q 2594 3103 2138 3103 
Q 1681 3103 1420 2742 
Q 1159 2381 1159 1747 
Q 1159 1113 1420 752 
Q 1681 391 2138 391 
Q 2594 391 2855 752 
Q 3116 1113 3116 1747 
z
M 1159 2969 
Q 1341 3281 1617 3432 
Q 1894 3584 2278 3584 
Q 2916 3584 3314 3078 
Q 3713 2572 3713 1747 
Q 3713 922 3314 415 
Q 2916 -91 2278 -91 
Q 1894 -91 1617 61 
Q 1341 213 1159 525 
L 1159 0 
L 581 0 
L 581 4863 
L 1159 4863 
L 1159 2969 
z
" transform="scale(0.015625)"/>
       <path id="DejaVuSans-65" d="M 3597 1894 
L 3597 1613 
L 953 1613 
Q 991 1019 1311 708 
Q 1631 397 2203 397 
Q 2534 397 2845 478 
Q 3156 559 3463 722 
L 3463 178 
Q 3153 47 2828 -22 
Q 2503 -91 2169 -91 
Q 1331 -91 842 396 
Q 353 884 353 1716 
Q 353 2575 817 3079 
Q 1281 3584 2069 3584 
Q 2775 3584 3186 3129 
Q 3597 2675 3597 1894 
z
M 3022 2063 
Q 3016 2534 2758 2815 
Q 2500 3097 2075 3097 
Q 1594 3097 1305 2825 
Q 1016 2553 972 2059 
L 3022 2063 
z
" transform="scale(0.015625)"/>
       <path id="DejaVuSans-72" d="M 2631 2963 
Q 2534 3019 2420 3045 
Q 2306 3072 2169 3072 
Q 1681 3072 1420 2755 
Q 1159 2438 1159 1844 
L 1159 0 
L 581 0 
L 581 3500 
L 1159 3500 
L 1159 2956 
Q 1341 3275 1631 3429 
Q 1922 3584 2338 3584 
Q 2397 3584 2469 3576 
Q 2541 3569 2628 3553 
L 2631 2963 
z
" transform="scale(0.015625)"/>
      </defs>
      <use xlink:href="#DejaVuSans-6e"/>
      <use xlink:href="#DejaVuSans-75" x="63.378906"/>
      <use xlink:href="#DejaVuSans-6d" x="126.757812"/>
      <use xlink:href="#DejaVuSans-62" x="224.169922"/>
      <use xlink:href="#DejaVuSans-65" x="287.646484"/>
      <use xlink:href="#DejaVuSans-72" x="349.169922"/>
     </g>
    </g>
   </g>
   <g id="patch_103">
    <path d="M 80.12 289.24 
L 80.12 11.342118 
" style="fill: none; stroke: #000000; stroke-width: 0.8; stroke-linejoin: miter; stroke-linecap: square"/>
   </g>
   <g id="patch_104">
    <path d="M 448.643388 289.24 
L 448.643388 11.342118 
" style="fill: none; stroke: #000000; stroke-width: 0.8; stroke-linejoin: miter; stroke-linecap: square"/>
   </g>
   <g id="patch_105">
    <path d="M 80.12 289.24 
L 448.643388 289.24 
" style="fill: none; stroke: #000000; stroke-width: 0.8; stroke-linejoin: miter; stroke-linecap: square"/>
   </g>
   <g id="patch_106">
    <path d="M 80.12 11.342118 
L 448.643388 11.342118 
" style="fill: none; stroke: #000000; stroke-width: 0.8; stroke-linejoin: miter; stroke-linecap: square"/>
   </g>
  </g>
 </g>
 <defs>
  <clipPath id="p4c11e9b5e9">
   <rect x="80.12" y="11.342118" width="368.523388" height="277.897882"/>
  </clipPath>
 </defs>
</svg>
